<svg width="640" height="420" viewBox="0 0 640 420" fill="none" xmlns="http://www.w3.org/2000/svg">
  <defs>
    <linearGradient id="bg1" x1="0" y1="0" x2="640" y2="420" gradientUnits="userSpaceOnUse">
      <stop stop-color="#ECFEFF"/>
      <stop offset="1" stop-color="#E0E7FF"/>
    </linearGradient>
    <linearGradient id="card1" x1="0" y1="0" x2="1" y2="1">
      <stop stop-color="#0EA5E9"/>
      <stop offset="1" stop-color="#2563EB"/>
    </linearGradient>
  </defs>
  <rect width="640" height="420" rx="28" fill="url(#bg1)"/>
  <circle cx="546" cy="84" r="56" fill="#A5F3FC"/>
  <circle cx="118" cy="340" r="72" fill="#BFDBFE"/>

  <rect x="188" y="72" width="264" height="292" rx="22" fill="white" stroke="#CFE3FF" stroke-width="6"/>
  <rect x="244" y="44" width="152" height="42" rx="14" fill="url(#card1)"/>

  <rect x="232" y="132" width="176" height="12" rx="6" fill="#C7DCFF"/>
  <rect x="232" y="166" width="142" height="12" rx="6" fill="#D8E8FF"/>
  <rect x="232" y="200" width="166" height="12" rx="6" fill="#D8E8FF"/>
  <rect x="232" y="234" width="128" height="12" rx="6" fill="#D8E8FF"/>

  <rect x="232" y="286" width="92" height="40" rx="12" fill="#14B8A6"/>
  <path d="M262 307L272 317L294 295" stroke="white" stroke-width="4" stroke-linecap="round" stroke-linejoin="round"/>
</svg>
